# xmcd CD database file
#
# Track frame offsets:
#	150
#	14418
#	33482
#	47825
#
# Disc length: 889 seconds
#
# Revision: 2
# Processed by: cddbd v1.5.2PL0 Copyright (c) Steve Scherf et al.
# Submitted via: CDex 1.70beta2
#
DISCID=2c037704
DTITLE=Mスリー - 夢見るダンシングドール
DYEAR=2013
DGENRE=JPop
TTITLE0=夢見るダンシングドール
TTITLE1=Glory days
TTITLE2=夢見るダンシングドール -instrumental-
TTITLE3=Glory days -instrumental-
EXTD=YEAR: 2013
EXTT0=
EXTT1=
EXTT2=
EXTT3=
PLAYORDER=
